<svg width="512" height="512" viewBox="0 0 512 512" fill="none" xmlns="http://www.w3.org/2000/svg" role="img" aria-label="I3 APS favicon">
  <defs>
    <linearGradient id="favicon_bg" x1="88" y1="72" x2="424" y2="440" gradientUnits="userSpaceOnUse">
      <stop offset="0" stop-color="#075CA8"/>
      <stop offset="0.58" stop-color="#0E7CC4"/>
      <stop offset="1" stop-color="#19A6D8"/>
    </linearGradient>
    <linearGradient id="favicon_core" x1="184" y1="174" x2="328" y2="342" gradientUnits="userSpaceOnUse">
      <stop offset="0" stop-color="#FFFFFF"/>
      <stop offset="1" stop-color="#DDF5FF"/>
    </linearGradient>
  </defs>

  <rect width="512" height="512" fill="#FFFFFF"/>
  <rect x="56" y="56" width="400" height="400" rx="104" fill="url(#favicon_bg)"/>

  <circle cx="256" cy="256" r="146" stroke="#DDF4FF" stroke-width="18" opacity="0.96"/>
  <path d="M256 130V256L152 328" stroke="#E9F8FF" stroke-width="22" stroke-linecap="round" stroke-linejoin="round"/>
  <path d="M256 256L360 328" stroke="#E9F8FF" stroke-width="22" stroke-linecap="round"/>

  <circle cx="256" cy="130" r="30" fill="#FFFFFF"/>
  <circle cx="152" cy="328" r="30" fill="#FFFFFF"/>
  <circle cx="360" cy="328" r="30" fill="#FFFFFF"/>

  <circle cx="256" cy="256" r="86" fill="url(#favicon_core)"/>
  <circle cx="256" cy="256" r="58" fill="#FFFFFF"/>

  <ellipse cx="256" cy="238" rx="34" ry="13" stroke="#0B67AF" stroke-width="16"/>
  <path d="M222 238V278" stroke="#0B67AF" stroke-width="16" stroke-linecap="round"/>
  <path d="M290 238V278" stroke="#0B67AF" stroke-width="16" stroke-linecap="round"/>
  <path d="M222 278C222 288 237 294 256 294C275 294 290 288 290 278" stroke="#0B67AF" stroke-width="16" stroke-linecap="round"/>
</svg>
