<svg width="420" height="420" viewBox="0 0 420 420" fill="none" xmlns="http://www.w3.org/2000/svg" role="img" aria-label="Marca I³ APS v2">
  <defs>
    <linearGradient id="mark_v2_bg_grad" x1="52" y1="52" x2="368" y2="368" gradientUnits="userSpaceOnUse">
      <stop offset="0" stop-color="#0B5FAE"/>
      <stop offset="1" stop-color="#1493DA"/>
    </linearGradient>
  </defs>

  <rect width="420" height="420" fill="#FFFFFF"/>
  <rect x="50" y="50" width="320" height="320" rx="78" fill="url(#mark_v2_bg_grad)"/>

  <path d="M210 138 L146 278 L274 278 Z" stroke="#E2F4FF" stroke-width="6.5" fill="none" stroke-linecap="round" stroke-linejoin="round" opacity="0.86"/>
  <path d="M210 210 L210 138" stroke="#E2F4FF" stroke-width="6.5" stroke-linecap="round"/>
  <path d="M210 210 L146 278" stroke="#E2F4FF" stroke-width="6.5" stroke-linecap="round"/>
  <path d="M210 210 L274 278" stroke="#E2F4FF" stroke-width="6.5" stroke-linecap="round"/>

  <path d="M210 138 C196 166 176 202 146 278 C192 276 238 276 274 278 C262 248 252 228 238 210 C232 222 226 232 220 210 C216 196 212 216 210 210" stroke="#CFEAFF" stroke-width="4.2" fill="none" stroke-linecap="round" stroke-linejoin="round"/>

  <circle cx="210" cy="138" r="13" fill="#FFFFFF"/>
  <circle cx="146" cy="278" r="13" fill="#FFFFFF"/>
  <circle cx="274" cy="278" r="13" fill="#FFFFFF"/>

  <circle cx="210" cy="210" r="69" stroke="#D8EEFC" stroke-width="4" fill="none"/>
  <circle cx="210" cy="210" r="53" fill="#FFFFFF"/>

  <ellipse cx="210" cy="196" rx="24" ry="8" stroke="#0E6AB9" stroke-width="6" fill="none"/>
  <path d="M186 196V226" stroke="#0E6AB9" stroke-width="6" fill="none" stroke-linecap="round"/>
  <path d="M234 196V226" stroke="#0E6AB9" stroke-width="6" fill="none" stroke-linecap="round"/>
  <path d="M186 226 C186 232 197 236 210 236 C223 236 234 232 234 226" stroke="#0E6AB9" stroke-width="6" fill="none" stroke-linecap="round" stroke-linejoin="round"/>
  <path d="M192 210 C196 212 202 213 210 213 C218 213 224 212 228 210" stroke="#0E6AB9" stroke-width="6" fill="none" stroke-linecap="round" stroke-linejoin="round"/>
</svg>
